{
    "asset" : {
        "generator" : "Khronos glTF Blender I/O v1.4.40",
        "version" : "2.0"
    },
    "scene" : 0,
    "scenes" : [
        {
            "name" : "Scene",
            "nodes" : [
                0
            ]
        }
    ],
    "nodes" : [
        {
            "mesh" : 0,
            "name" : "level1_collision",
            "rotation" : [
                0.7071068286895752,
                0,
                0,
                0.7071067094802856
            ]
        }
    ],
    "meshes" : [
        {
            "name" : "level1_collision",
            "primitives" : [
                {
                    "attributes" : {
                        "POSITION" : 0,
                        "NORMAL" : 1,
                        "TANGENT" : 2,
                        "TEXCOORD_0" : 3
                    },
                    "indices" : 4
                }
            ]
        }
    ],
    "accessors" : [
        {
            "bufferView" : 0,
            "componentType" : 5126,
            "count" : 4032,
            "max" : [
                11,
                1,
                11
            ],
            "min" : [
                -11,
                0,
                -11
            ],
            "type" : "VEC3"
        },
        {
            "bufferView" : 1,
            "componentType" : 5126,
            "count" : 4032,
            "type" : "VEC3"
        },
        {
            "bufferView" : 2,
            "componentType" : 5126,
            "count" : 4032,
            "type" : "VEC4"
        },
        {
            "bufferView" : 3,
            "componentType" : 5126,
            "count" : 4032,
            "type" : "VEC2"
        },
        {
            "bufferView" : 4,
            "componentType" : 5123,
            "count" : 6048,
            "type" : "SCALAR"
        }
    ],
    "bufferViews" : [
        {
            "buffer" : 0,
            "byteLength" : 48384,
            "byteOffset" : 0
        },
        {
            "buffer" : 0,
            "byteLength" : 48384,
            "byteOffset" : 48384
        },
        {
            "buffer" : 0,
            "byteLength" : 64512,
            "byteOffset" : 96768
        },
        {
            "buffer" : 0,
            "byteLength" : 32256,
            "byteOffset" : 161280
        },
        {
            "buffer" : 0,
            "byteLength" : 12096,
            "byteOffset" : 193536
        }
    ],
    "buffers" : [
        {
            "byteLength" : 205632,
            "uri" : "level1_collision.bin"
        }
    ]
}
